<?xml version="1.0" encoding="utf-8"?>
<!-- Generator: Adobe Illustrator 23.0.1, SVG Export Plug-In . SVG Version: 6.00 Build 0)  -->
<svg version="1.1" xmlns="http://www.w3.org/2000/svg" xmlns:xlink="http://www.w3.org/1999/xlink" x="0px" y="0px"
	 viewBox="0 0 800 600" style="enable-background:new 0 0 800 600;" xml:space="preserve">
<style type="text/css">
	.st0{fill:none;stroke:#000000;stroke-width:0.5;stroke-linecap:round;stroke-linejoin:round;}
	.st1{font-family:'Roboto-Regular';}
	.st2{font-size:14px;}
</style>
<g id="Slovakia">
	<path class="st0" d="M368.401,118.064l1.101,0.461l2.189,3.874l0.98,1.046l3.048,2.029l1.571,4.026l2.363,10.095l2.095,6.366
		l0.671,1.426l2.229,1.725l2.713,0.733l5.197,0.052l-0.604,1.26l-0.201,1.084l0.081,3.128l-0.276,2.35l-0.007,0.059l7.467,2.553
		l2.833,0.309l2.632-0.268l4.351-1.754l1.168,0.888l0.027,0.02l1.209,3.775l0.658,3.32l0.766,9.644l-0.201,0.814l-0.994,1.493
		l-0.079,0.829l-0.001,0.016l0.457,0.669l1.773,1.318l0.013,0.01l0.208,0.452l0.034,0.073l0.987,1.041l0.048,0.05l0.242,0.865
		l-0.309,1.122l-0.752,0.443l-0.833,0.237l-0.578,0.473l-4.915,8.042l-0.521,2.607l-0.003,0.014l1.679,2.322l3.277,1.202
		l5.989,0.452l2.887-1.069l1.829-1.894l0.139,0.62l2.746,4.664l0.645,1.592l0.483,1.859l0.06,2.448l0.161,1.268l0.604,1.098
		l0.423,0.262l0.363-0.092l0.242-0.369l0.443-0.498l0.504-0.308l0.947-0.113l0.812,0.174l0.786,0.682l0.645,1.077l0.806,1.98
		l0.504,0.713l0.403,0.174l0.342-0.349l0.322-0.164l0.383,0.205l0.403,0.749l0.403,0.523l0.423,0.359h0.504l2.545-0.462l1.773-0.826
		l0.685-0.221l0.685-0.062l0.363,0.831l0.101,1.549l-0.806,5.844l-0.04,2.193l-0.161,1.655l-0.624,2.843l-0.121,2.499l-0.242,1.203
		l-0.483,0.522l-0.866,0.092l-1.41,0.676l-0.705,0.031l-0.933-0.123l-0.423,0.123l-0.141,0.497l0.121,0.834l4.438,5.818l0.786,0.767
		l0.625,0.808l0.423,0.941l0.181,1.718l0.524,1.958l0.282,0.772l0.282,0.532l0.403,0.429l0.645,0.245l1.437,0.276l0.302,0.455
		l-0.282,0.812l-1.417,1.482l-1.39,1.083l-4.432,1.982l-1.699-1.298l-0.564-0.072l-0.705,0.02l-2.276,1.114l-1.551,0.153
		l-0.342,0.112l-12.442-0.276l-3.646-1.022l-1.215-0.031l-5.942,1.737l-1.558,0.878l-0.483,0.01l-0.504-0.199l-0.665-0.643
		l-0.342-0.444l-0.383-0.378l-0.483-0.235l-1.289-0.337l-0.483-0.271l-0.712-0.802l-0.987-0.766l-8.346-3.107l-9.857-1.227
		l-21.816,3.731l-4.338,5.374l-2.74,1.593l-1.39,1.828l-0.221,0.745l-0.181,1.256l-0.121,0.398l-0.181,0.327l-0.262,0.327
		l-0.685,0.51l-0.712,0.235l-5.298,0.827l-0.403-0.02l-0.242-0.128l0.302-0.822l0.141-0.245l0.181-0.092l0.463-0.061l0.141-0.102
		l0.04-0.48l-0.061-0.735l-0.221-1.577l-0.262-0.72l-0.302-0.439l-0.403-0.204l-0.222-0.235l-0.202-0.705l-0.181-0.327l-1.034-0.02
		l-21.487,3.104l-6.171-0.357l-1.497,3.491l-0.383,0.49l-0.625,0.653l-2.155,1.082l-0.282,0.469l0.02,0.663l0.705,2.438l0.121,1.153
		l-0.121,0.836l-0.504,0.76l-0.383,0.454l-0.161,0.602l0.121,0.877l0.745,1.397l1.732,1.58l0.181,0.265l0.081,0.632l-0.06,0.968
		l-0.423,2.318l-0.302,1.197l-1.773,3.28l-11.052-0.652l-2.196-0.519l-0.06-0.27l-0.302-0.545l-0.242-0.244l-0.161-0.234
		l-0.181-0.316l-0.101-0.397l-0.161-0.397l-0.222-0.306l-1.591,0.509l-5.566,3.921l-0.343-1.884l-0.383-0.621l-4.438-5.568
		l-0.866-1.34l-0.463-0.999l-0.383-1.397l-0.061-0.652l0.081-0.489l0.302-0.367l-0.04-0.178l-0.383-0.316l-0.765-0.444l-2.055-1.973
		l-0.544-0.163l-0.322-0.148l-0.47-0.316l-0.342-0.178l-0.604-0.178l-0.302-0.128l-0.342-0.23l-2.941-2.688l-0.544-0.74
		l-0.282-0.633l-0.02-1.123l0.181-1.25l0.04-0.485l-0.04-0.48l-0.181-0.909v-0.556l0.081-0.516l0.363-1.179l0.04-0.791l-0.06-1.001
		l-0.745-3.013l-0.04-0.756l0.181-0.434l0.362-0.547l0.181-0.429l0.121-0.409l0.06-0.327l0.101-0.245l0.202-0.194l0.262-0.159
		l0.262-0.23l0.342-0.358l0.242-0.378l0.645-0.593l-2.599-3.399l-0.504-0.373l-0.725-0.424l-2.484-0.245l-5.405-1.396l-4.19,1.248
		l-1.269-0.036l-0.242-0.368l-0.806-1.621l-0.322-0.291h-0.309l-1.692,1.836l-0.201,0.307l-0.081,0.337l-0.04,0.353l-0.463,0.675
		l-0.886,0.833l-3.471,2.045l-0.967,0.215l-0.504-0.092l-1.813-0.603l-2.357-0.45l-1.108-0.849l-0.732-1.59l3.814-2.255l0.524-0.45
		l0.745-0.777l1.229-2.123l0.765-0.737l0.806-0.507l3.915-1.115l1.209-0.983l1.497-1.791l1.712-2.467l0.665-1.331l0.282-1.116
		l-0.383-2.633l0.02-0.41l0.121-0.41l0.222-0.553l0.06-0.318l-0.02-0.297l-0.081-0.256l-0.02-0.297l0.04-0.338l0.201-0.799
		l0.04-0.359l-0.04-0.307l-0.161-0.256l-0.221-0.256l-0.222-0.164l-0.504-0.277l-0.181-0.174l-0.161-0.226l-0.342-0.902
		l-0.222-0.307l-0.282-0.338l-0.309-0.267l-0.255-0.185l-1.86-0.559h-0.524l-0.222-0.067l-0.181-0.39l0.484-0.718l3.492-3.682
		l-1.558-2.467l-0.141-0.446l-0.121-0.79l0.081-0.77l-0.06-1.447l-0.383-0.97l-1.047-1.483l-0.645-0.596l-2.437-1.535l-0.725-0.185
		l-0.504-0.21l-0.551-0.375l-1.571-1.474l-0.423-0.298l-0.322-0.087h-0.443l-0.201-0.057l-3.122-2.075l-0.725-0.714l-0.712-0.971
		l-1.632-2.986l-0.201-0.447l0.02-0.185l-0.06-0.334l-0.141-0.427l-0.645-1.239l-0.101-0.37l0.02-0.242l0.202-0.509l0.06-0.293
		l-0.161-0.504l-0.322-0.684l-8.004-13.374l-0.141-0.355l-0.081-0.407l-0.04-0.361l-0.04-1.545l-2.337-0.762l-0.606-0.901
		l3.063-2.407l0.24-7.055l0.082-2.421l3.787,0.856l2.914-1.919l5.533-6.791l4.271-2.303l1.074-1.095l0.658-1.756l0.322-3.719
		l0.671-1.643l2.672-1.695l5.748,0.837l3.706-1.964l0.9-0.186l0.9,0.186l4.257,2.15l3.76,1.158l3.639-0.207l5.331-4.921l2.431-0.931
		l5.318-0.145l12.865,1.189l3.76,2.306l-1.141,3.369l0.134,2.852l0.631,2.706l0.336,2.964l-0.537,6.564l0.725,2.249l2.538,0.475
		l3.29-0.258l5.022-2.93l2.834-0.671l1.195,0.413l2.578,1.888l1.249,0.64l1.343,0.093l3.263-0.65l4.002-1.609l0.94-1.6l0.336-2.487
		l0.913-3.892l0.376-0.083l1.598-0.041l0.577-0.434l0.309-1.332l-0.255-0.95l-0.416-0.599l-0.228-0.227l2.082-6.49l1.773-2.843
		l1.893-1.81l2.122-1.045l2.498-0.538l4.002,0.041l1.343-0.217l1.84-0.745l0.98-0.848l11.267-12.454l0.497-0.994l0.752-0.331
		L368.401,118.064z"/>
	<path class="st0" d="M422.899,197.844l2.536-2.628l2.35-1.748l4.163-0.463l3.612,1.881l6.701,6.32l4.311,2.116l2.538-1.962
		l1.343-4.973l0.739-6.95l1.612-1.954l0.9-2.212l0.739-2.367l2.484-5.59l0.739-0.989l0.322,0.309l2.86,0.34l1.276-1.195l2.833-3.389
		l1.974-1.113l10.032-0.886l0.645-0.886l0.927-2.762l0.671-2.846l0.269-1.836l0.484-1.238l1.329-1.001l1.544-0.031l5.318,2.012
		l6.715-0.258l-0.027-3.435l2.028-0.464l10.985,5.622l2.847,0.701l3.075-1.103l1.491-1.403l2.068-2.569l1.329-0.753l1.195-0.083
		l2.807,0.423l4.915-0.794l2.028,0.361l11.536,13.827l2.055,1.504l2.914,0.453l2.216-0.134l2.041,0.309l2.431,1.813l2.122,2.214
		l2.108,1.534l2.39,0.453l3.048-1.102l2.807-2.44l4.244-6.233l2.672-2.607l2.041-0.433l2.74-0.031l2.404-0.484l1.061-1.825
		l-1.585-3.011l-2.995-1.826l-1.585-1.816l2.632-2.951l1.987-0.949l5.278-1.074l2.014,0.186l2.35,1.621l1.853,2.074l1.988,1.372
		l2.793-0.464l2.229-2.095l4.056-6.029l2.35-1.632l1.799,0.434l7.279,3.893l12.664,3.592l2.149-0.021l4.821-1.063l1.907,0.568
		l2.369-0.964l1.968-0.801l9.306-1.053l2.431,0.63l1.316,0.888l2.417,2.363l1.316,0.918l0.98,0.134l2.014-0.454l1.289,0.382
		l2.189,2.249l4.365,6.744l2.001,1.629l1.356-0.907l1.84-2.196l2.243-2.062l2.619-0.485l2.377,1.361l4.767,4.402l6.997,3.504
		l4.687,4.429l3.733,6.054l1.638,7.027l0.859,6.334l3.68,2.703l9.199,1.757l4.23,2.732l1.504,0.668l1.303,0.082l3.116-0.38
		l1.074,0.205l1.423,1.592l0.013,1.396l-0.362,1.283l0.295,1.252l0.967,0.831l6.097,1.868l7.185-0.277l2.766,1.098l6.58,6.637
		l4.767,1.466l10.166,0.441l4.499,2.224l-0.994,3.269l-0.94,4.528l-0.604,4.567l0.054,3.347l-2.014,1.719l-4.996,0.737l-2.283,1.801
		l-2.82,8.302l-1.612,3.515l-0.161,0.971l0.013,2.553l-0.255,1.205l-1.222,1.767l-3.116,2.644l-0.988,1.421l-0.086-0.022
		l-5.969-1.562l-0.645,0.051l-3.344,0.99l-4.277,0.245l-0.665-0.245l-0.463-0.459l-0.141-1l-0.081-1.281l-1.994-4.753l-0.242-0.935
		l-0.027-0.73l-0.134-0.777l-0.43-0.756l-2.256-1.308l-3.525,0.051l-4.841,6.65l-2.76,1.185l-0.363,0.368l-0.45,0.521l-0.054,0.429
		l0.013,0.454l0.107,0.485l0.524,1.817l0.363,1.883l0.06,0.923l-0.161,0.612l-0.262,0.184l-0.47,0.117l-7.48,0.168l-3.888,0.638
		l-2.417-0.066l-2.746-0.709l-5.922-3.587l-0.792-0.715l0.04-0.296l-0.322-0.337l-0.705-0.439l-1.773-0.868l-12.563-4.095
		l-4.895-0.143l-0.141,5.013l0.081,0.367l0.121,0.378l0.081,0.572v2.602l0.081,0.75l0.544,2.046l0.081,0.398l-0.081,1.239
		l0.06,0.505l0.181,0.591l0.725,1.734l0.201,0.8l0.02,0.719l-0.201,0.856l-0.403,1.07l-0.524,0.591l-0.725,0.438l-2.464,0.826
		l-2.135,1.936l-2.961,0.555l-0.873,0.423l-0.121,0.265l-0.181,0.662l-0.202,0.311l-0.342,0.29l-0.524,0.29l-0.725,0.26
		l-1.027,0.183l-1.249-0.138l-1.41-0.464l-2.444-1.813l-0.927-0.387l-1.068-0.112l-2.276,0.107l-3.351-0.606l-8.165-3.23
		l-3.767-6.842l-0.611-0.928l-0.739-1.505l-0.41-1.209l-0.161-1.985l-0.141-0.965l-1.531-3.792l-1.833,0.919l-0.322,0.332
		l-0.604,0.403l-1.047,0.271l-0.987-0.148l-1.679-0.852l-0.564-0.704l-0.342-0.633l-0.06-0.49l-0.161-0.48l-0.221-0.02l-0.282,0.383
		l-0.141,1.496l-0.161,0.786l-0.222,0.393l-0.342-0.107l-0.524-0.602l-0.927-0.786l-0.483-0.153l-0.631,0.02l-1.209,0.408
		l-0.463,0.332l-0.161,0.363l0.423,0.796l0.161,0.47l0.04,0.623l-0.322,2.552l-0.383,1.418l-0.383,0.842l-0.443,0.444l-0.483,0.245
		l-0.423,0.122l-2.075,0.214l-1.531,0.622l-0.591,0.102l-1.873-0.01l-0.665,0.107l-0.504,0.214l-0.302,0.352l-0.201,0.377
		l-0.101,0.428l0.02,0.413l0.121,0.398l0.201,0.306l0.625,0.505l0.201,0.229l0.02,0.148l-0.121,0.189l-0.363,0.153l-1.732,0.189
		l-1.571-0.173l-1.417-0.724l-2.377-2.162l-1.41-2.285l-0.06-0.495l-0.02-0.393l0.121-0.434l0.262-0.423l0.745-0.923l0.201-0.403
		l0.262-0.357l0.786-0.755l0.181-0.306l0.04-0.296l-0.222-0.674l-0.06-0.347l-0.181-0.25l-0.363-0.077l-0.806,0.347l-0.725,0.041
		l-0.645-0.184l-0.886-0.679l-0.906-0.413l-1.256-0.031l-1.894-0.704l-2.659,0.521l-0.766-0.337l-1.148-1.052l-0.631-0.72
		l-0.403-0.567l-0.242-0.414l-0.362-0.383l-0.484-0.358l-0.645-0.378l-0.403-0.301l-0.483-0.158l-0.625-0.041l-2.377,0.766
		l-0.611,0.026l-2.498-0.322l-4.942-1.675l-1.793,0.209l-0.363,0.123l-0.504,0.107l-0.504-0.184l-0.524-0.48l-0.745-1.139
		l-0.262-0.639l-0.141-0.47l-0.02-0.327l-0.363-0.542l-2.155-2.075l-0.591-0.879l-0.282-0.92l0.04-0.542v-0.46l-0.061-0.496
		l-0.342-1.038l-0.504-0.276l-0.765-0.092l-1.773,0.266l-0.745,0.266l-0.443,0.256l-0.101,0.245l-0.181,0.245l-0.584-0.113
		l-3.653-2.408l-2.699-0.414l-2.605-2.271l-4.109,0.89l-0.604-0.061l-0.826-0.215l-1.491-0.696l-0.41-0.501l-0.02-0.491l0.524-0.573
		l-0.121-0.389l-0.685-0.394l-2.034-0.476l-3.082-1.392l-1.45-0.358l-0.369,0.082l-0.141,0.542l0.101,0.394l0.322,0.691l0.04,0.481
		l-0.06,0.583l-0.161,0.778l-0.06,0.491v0.358l0.141,0.215l0.228,0.205l0.645,0.46l0.242,0.235l-0.04,0.215l-0.228,0.164
		l-0.443,0.179l-8.145-1.376l-2.377,0.153l-0.826,0.246l-0.544,0.266l-0.141,0.266l-0.02,0.297l0.081,0.317l0.363,0.777l0.06,0.256
		l-0.08,0.194l-0.665,0.726l-0.363,0.312l-0.524,0.332l-1.35,0.624l-1.618,0.194l-1.511-0.113l-0.806-0.358l-1.591-2.659
		l-0.242-0.491l-0.665-0.327l-1.074-0.256l-2.719-0.297l-3.122-1.852l-3.431-2.655l-0.685-0.65l-0.282-0.583l0.302-1.418
		l-0.101-0.537l-0.665-0.256l-0.604,0.184l-1.027,1.054l-0.363,0.671l-0.161,0.63l0.665,1.208l0.04,0.348l-0.463,0.266l-3.069,1.064
		l-0.363,0.184l-0.06,0.302l0.04,0.43l0.222,0.997l0.221,0.522l0.242,0.338l0.222,0.179l0.141,0.159l0.06,0.215l-0.242-0.164
		l-0.483-0.542l-2.035-2.926l-2.941-2.016l-0.933-0.215l-0.134-0.246l-0.329-0.287l-0.322-0.133l-0.524,0.266l-2.014,1.955
		l-0.604,0.348l-0.423,0.061l-0.282-0.169l-0.342,0.031l-0.342,0.215l-0.906,0.773l-5.687,2.527l-1.712,1.135l-0.665,0.665
		l-1.638,2.321l-1.531,1.442l-0.06,0.419l0.362,0.419l1.511,0.235l1.699,0.552l1.893,2.417l-3.854,2.488l-0.725,0.746l-0.886,1.313
		l-1.531,3.835l-1.914,1.838l-5.305-3.119l-0.947-0.761l-0.705-0.378l-2.545-0.837l-2.377-1.236l-0.866,0.015l-2.014,1.793
		l-2.464,0.184l-18.707-2.339l4.432-1.982l1.39-1.083l1.417-1.482l0.282-0.812l-0.302-0.455l-1.437-0.276l-0.645-0.245l-0.403-0.429
		l-0.282-0.532l-0.282-0.772l-0.524-1.958l-0.181-1.718l-0.423-0.941l-0.625-0.808l-0.786-0.767l-4.438-5.818l-0.121-0.834
		l0.141-0.497l0.423-0.123l0.933,0.123l0.705-0.031l1.41-0.676l0.866-0.092l0.483-0.522l0.242-1.203l0.121-2.499l0.624-2.843
		l0.161-1.655l0.04-2.193l0.806-5.844l-0.101-1.549l-0.363-0.831l-0.685,0.062l-0.685,0.221l-1.773,0.826l-2.545,0.462h-0.504
		l-0.423-0.359l-0.403-0.523l-0.403-0.749l-0.383-0.205l-0.322,0.164l-0.342,0.349l-0.403-0.174l-0.504-0.713l-0.806-1.98
		l-0.645-1.077l-0.786-0.682l-0.812-0.174l-0.947,0.113l-0.504,0.308l-0.443,0.498l-0.242,0.369l-0.363,0.092l-0.423-0.262
		l-0.604-1.098l-0.161-1.268l-0.06-2.448l-0.483-1.859l-0.645-1.592l-2.746-4.664L422.899,197.844z"/>
	<path class="st0" d="M748.062,265.726l-0.247,0.355l-0.859,2.408l-0.094,1.54l0.255,1.612l0.282,6.689l-0.295,1.335l-0.9,2.262
		l-1.128,1.63l-1.222,0.968l-0.994,1.294l-0.403,2.637l0.161,4.225l-0.833,4.182l-1.585,3.672l-2.081,2.766l-1.571,1.027
		l-3.465,1.108l-1.598,1.098l-0.98,1.382l-1.356,3.135l-0.806,1.432l-8.487,6.89l-1.947,3.197l-0.269,3.977l1.518,7.949
		l-0.457,3.081l-1.437,3.191l-0.121,14.109l-2.458,3.16l-2.27,1.805l-2.417,0.708l-7.775-0.768l-2.35,0.152l-2.39,0.829
		l-6.782,0.354l-1.894,0.748l-3.962,2.274l-5.6,0.839l-6.728,3.45l-3.948,0.343l-4.069-1.394l-3.438-2.551l-3.075-3.598
		l-7.279-11.216l-1.061-2.095l-1.692-8.09l-1.128-2.229l-2.216-0.501l-4.794,0.066l-2.068-0.953l-0.873-1.378l-1.182-3.801
		l-0.859-1.683l-1.115-1.019l-2.35-0.928l-4.365-2.617l-1.893-0.578l-6.742,2.146l-4.432,0.096l-2.176,0.446l-2.538,1.506
		l-1.088,1.83l-0.739,2.089l-1.517,2.199l-1.92,1.084l-1.477-0.649l-1.612-1.363l-2.35-1.034l-4.311,0.983l-10.058,4.824
		l-3.29-0.765l-2.619-2.594l-3.626-1.647l-3.827-0.689l-3.25,0.253l-4.633-0.416l-7.077-4.34l-4.083-0.436l-1.88-0.492l-3.854-3.53
		l-2.014-1.065l-2.108,0.036l-27.49,6.375l-8.057,0.548l-3.747,1.511l-0.148,1.48l-0.04,1.632l0.255,3.4l0.081,0.689l0.013,0.694
		l-0.054,0.699l-0.108,0.689l-1.746,2.618l-0.295,0.313l-0.074-0.055l-2.176-1.61l-2.847,0.025l-0.947,0.339l-2.256,1.266
		l-1.068,0.066l-2.035-0.279l-5.486,0.466l-0.584-0.081l-0.04-0.223l0.101-0.309l0.161-0.334l0.242-0.37l0.101-0.314l-0.302-0.385
		l-2.283-1.408l-0.624-0.633l-0.322-0.623l0.04-0.501l0.101-0.496l-0.02-0.562l-0.141-0.537l-0.443-0.912l-0.161-0.689l-0.04-0.801
		l0.242-1.247l0.342-0.953l0.483-0.973l0.725-1.105l0.349-0.801l0.947-4.645l0.342-1.106l0.302-0.72l0.342-0.634l0.342-0.482
		l0.242-0.457l0.201-0.624l0.504-2.553l0.363-1.34l-0.06-0.315l-0.282-0.218l-1.148-0.452l-1.088-0.599l-0.443-0.147l-1.417-0.198
		l-0.927-0.284l-1.168-0.609l-0.483-0.457l-0.222-0.366l-0.02-0.447l0.06-0.406l0.121-0.356l0.121-0.355l-0.886-3.617l-2.699-7.894
		l-0.712-1.449l-6.674-5.54l-0.295-0.178l-1.457-0.305l-1.027-0.997l-0.504-1.201l-0.463-2.332l-0.04-1.171l0.101-0.876l0.302-0.509
		l0.443-0.55l0.685-0.652l0.625-0.784l0.544-0.856l-0.06-1.029l-0.383-1.946l0.02-1.544l0.081-1.906l0.081-0.489l0.04-0.607
		l-0.121-0.964l0.564-1.147l6.11-9.203l2.948-0.908l1.914-1.838l1.531-3.835l0.886-1.313l0.725-0.746l3.854-2.488l-1.893-2.417
		l-1.699-0.552l-1.511-0.235l-0.362-0.419l0.06-0.419l1.531-1.442l1.638-2.321l0.665-0.665l1.712-1.135l5.687-2.527l0.906-0.773
		l0.342-0.215l0.342-0.031l0.282,0.169l0.423-0.061l0.604-0.348l2.014-1.955l0.524-0.266l0.322,0.133l0.329,0.287l0.134,0.246
		l0.933,0.215l2.941,2.016l2.035,2.926l0.483,0.542l0.242,0.164l-0.06-0.215l-0.141-0.159l-0.222-0.179l-0.242-0.338l-0.221-0.522
		l-0.222-0.997l-0.04-0.43l0.06-0.302l0.363-0.184l3.069-1.064l0.463-0.266l-0.04-0.348l-0.665-1.208l0.161-0.63l0.363-0.671
		l1.027-1.054l0.604-0.184l0.665,0.256l0.101,0.537l-0.302,1.418l0.282,0.583l0.685,0.65l3.431,2.655l3.122,1.852l2.719,0.297
		l1.074,0.256l0.665,0.327l0.242,0.491l1.591,2.659l0.806,0.358l1.511,0.113l1.618-0.194l1.35-0.624l0.524-0.332l0.363-0.312
		l0.665-0.726l0.08-0.194l-0.06-0.256l-0.363-0.777l-0.081-0.317l0.02-0.297l0.141-0.266l0.544-0.266l0.826-0.246l2.377-0.153
		l8.145,1.376l0.443-0.179l0.228-0.164l0.04-0.215l-0.242-0.235l-0.645-0.46l-0.228-0.205l-0.141-0.215v-0.358l0.06-0.491
		l0.161-0.778l0.06-0.583l-0.04-0.481l-0.322-0.691l-0.101-0.394l0.141-0.542l0.369-0.082l1.45,0.358l3.082,1.392l2.034,0.476
		l0.685,0.394l0.121,0.389l-0.524,0.573l0.02,0.491l0.41,0.501l1.491,0.696l0.826,0.215l0.604,0.061l4.109-0.89l2.605,2.271
		l2.699,0.414l3.653,2.408l0.584,0.113l0.181-0.245l0.101-0.245l0.443-0.256l0.745-0.266l1.773-0.266l0.765,0.092l0.504,0.276
		l0.342,1.038l0.061,0.496v0.46l-0.04,0.542l0.282,0.92l0.591,0.879l2.155,2.075l0.363,0.542l0.02,0.327l0.141,0.47l0.262,0.639
		l0.745,1.139l0.524,0.48l0.504,0.184l0.504-0.107l0.363-0.123l1.793-0.209l4.942,1.675l2.498,0.322l0.611-0.026l2.377-0.766
		l0.625,0.041l0.483,0.158l0.403,0.301l0.645,0.378l0.484,0.358l0.362,0.383l0.242,0.414l0.403,0.567l0.631,0.72l1.148,1.052
		l0.766,0.337l2.659-0.521l1.894,0.704l1.256,0.031l0.906,0.413l0.886,0.679l0.645,0.184l0.725-0.041l0.806-0.347l0.363,0.077
		l0.181,0.25l0.06,0.347l0.222,0.674l-0.04,0.296l-0.181,0.306l-0.786,0.755l-0.262,0.357l-0.201,0.403l-0.745,0.923l-0.262,0.423
		l-0.121,0.434l0.02,0.393l0.06,0.495l1.41,2.285l2.377,2.162l1.417,0.724l1.571,0.173l1.732-0.189l0.363-0.153l0.121-0.189
		l-0.02-0.148l-0.201-0.229l-0.625-0.505l-0.201-0.306l-0.121-0.398l-0.02-0.413l0.101-0.428l0.201-0.377l0.302-0.352l0.504-0.214
		l0.665-0.107l1.873,0.01l0.591-0.102l1.531-0.622l2.075-0.214l0.423-0.122l0.483-0.245l0.443-0.444l0.383-0.842l0.383-1.418
		l0.322-2.552l-0.04-0.623l-0.161-0.47l-0.423-0.796l0.161-0.363l0.463-0.332l1.209-0.408l0.631-0.02l0.483,0.153l0.927,0.786
		l0.524,0.602l0.342,0.107l0.222-0.393l0.161-0.786l0.141-1.496l0.282-0.383l0.221,0.02l0.161,0.48l0.06,0.49l0.342,0.633
		l0.564,0.704l1.679,0.852l0.987,0.148l1.047-0.271l0.604-0.403l0.322-0.332l1.833-0.919l1.531,3.792l0.141,0.965l0.161,1.985
		l0.41,1.209l0.739,1.505l0.611,0.928l3.767,6.842l8.165,3.23l3.351,0.606l2.276-0.107l1.068,0.112l0.927,0.387l2.444,1.813
		l1.41,0.464l1.249,0.138l1.027-0.183l0.725-0.26l0.524-0.29l0.342-0.29l0.202-0.311l0.181-0.662l0.121-0.265l0.873-0.423
		l2.961-0.555l2.135-1.936l2.464-0.826l0.725-0.438l0.524-0.591l0.403-1.07l0.201-0.856l-0.02-0.719l-0.201-0.8l-0.725-1.734
		l-0.181-0.591l-0.06-0.505l0.081-1.239l-0.081-0.398l-0.544-2.046l-0.081-0.75v-2.602l-0.081-0.572l-0.121-0.378l-0.081-0.367
		l0.141-5.013l4.895,0.143l12.563,4.095l1.773,0.868l0.705,0.439l0.322,0.337l-0.04,0.296l0.792,0.715l5.922,3.587l2.746,0.709
		l2.417,0.066l3.888-0.638l7.48-0.168l0.47-0.117l0.262-0.184l0.161-0.612l-0.06-0.923l-0.363-1.883l-0.524-1.817l-0.107-0.485
		l-0.013-0.454l0.054-0.429l0.45-0.521l0.363-0.368l2.76-1.185l4.841-6.65l3.525-0.051l2.256,1.308l0.43,0.756l0.134,0.777
		l0.027,0.73l0.242,0.935l1.994,4.753l0.081,1.281l0.141,1l0.463,0.459l0.665,0.245l4.277-0.245l3.344-0.99l0.645-0.051l5.969,1.562
		L748.062,265.726z"/>
	<path class="st0" d="M69.482,432.736l-3.035-2.735l-4.203-1.501l-2.981-1.637l0.698-3.189l-1.558-1.301l-0.51-0.321l0.739-3.617
		l0.671-1.97l1.33-1.644l-1.692-1.815l-0.618-1.126l-1.947-3.556l-1.37-0.88l-2.082-0.322l-1.786-1.097l-3.277-3.603l-0.927-3.035
		l-0.014-4.225l-0.618-3.526l-2.028-7.006l-0.054-0.933l0.175-2.234l-0.121-0.847l-0.484-0.676l-0.806-0.277l-1.437-1.312
		l-1.182-0.545l-0.994-0.641l-0.43-1.151l-0.161-0.888l-0.416-1.12l-0.443-0.979l-0.349-0.414l-0.564-0.404l0.242-0.99l0.51-1.131
		l0.295-0.868l-0.591-1.551l-1.329-1.49l-1.37-1.132l-0.739-0.435l-2.619-0.278l-1.007-0.611L30,362.546l0.081-2.148l0.228-0.89
		l0.322-0.581l0.336-1.234l1.155-10.451l0.537-2.799l1.316-2.638l3.398-4.913l0.685-2.609l0.967-1.85l2.149-1.739l2.135-2.261
		l0.28-1.003l0.439-0.057l7.863-2.429l5.869-0.259l0.423-0.086l0.081-0.325l-0.141-0.482l-0.383-0.918l0.786-0.051l1.699,0.467
		l5.701,2.739l1.276,0.416l0.765-0.183l5.398-2.348l1.759-1.091l2.337-0.659l1.611-0.076l1.007-0.289l0.564-0.568l0.524-1.258
		l0.49-0.589l0.564-0.376l1.188-0.528l1.007-0.69l0.262-0.274l0.222-0.35l0.282-0.822l0.201-0.406l0.322-0.411l0.584-0.564
		l0.786-0.584l0.262-0.102l0.262-0.046l0.201-0.086l0.141-0.183l0.128-0.284l3.666-5.969l1.148-1.464l0.846-0.701l0.624,0.168
		l0.342,0.259l0.262,0.274l0.262,0.208l1.356,0.401l0.463,0.244l0.463,0.371l0.544,0.64l0.504,0.721l0.483,0.925l0.322,1.402
		l0.06,1.849l-0.745,2.255l-0.685,1.356l-2.303,3.117l-0.423,0.441l-0.383,0.162l-0.443,0.041l-0.423-0.041l-0.443,0.071
		l-0.262,0.325l-0.906,2.456l-0.222,0.355l-0.302,0.279l-1.45,0.746l0.04,1.238l-0.665,1.542l7.057,7.026l-1.215,0.806l-0.524,0.542
		l-0.645,0.871l-1.954,3.11l-1.108,2.249l0.443,2.202l1.672,0.653l1.779-0.03l0.295,0.04l0.269,0.142l0.282,0.243l0.363,0.41
		l0.947,0.714l0.745,0.739l0.363,0.233l0.544,0.132l2.317,0.076l0.403,0.248l0.06,0.415l-0.302,0.759l-0.262,0.385l-0.06,0.405
		l0.242,0.425l1.235,1.012l0.443,0.491l0.886,1.401l1.007,1.032l0.584,0.931l2.175,4.379l0.524,0.677l0.403,0.344l0.745,0.046
		l0.51,0.227l0.416,0.404l0.732,0.854l0.423,0.632l0.363,0.687l0.302,0.394v0.778l-0.302,1.071l-1.108,2.556l-0.974,1.687
		l-0.081,0.475l-0.02,0.404l0.786,2.211l7.037,5.708l-3.586,4.288l-0.625,1.205l-0.121,0.968l0.262,1.775l0.262,0.625l0.322,0.312
		l0.584,0.121l2.686,1.245l0.282,0.665l-0.027,0.872l-0.255,2.131l0.282,0.73l0.295,0.312l0.55-0.171l0.222,0.015l0.161,0.136
		l0.262,0.474l0.201,0.252v0.604l-0.181,0.907l-0.826,2.135l-0.443,0.831l-0.483,0.438l-0.692-0.262l-1.45,0.463l-4.109,3.212
		l-3.451,1.545l-0.624,0.015l-0.564-0.221l-0.987-0.775l-0.604-0.282l-1.752-0.191l-0.363-0.141l-0.148-0.201l-0.04-0.322
		l0.148-0.403l0.577-1.057l-0.215-0.695l-0.148-0.307l-0.054-0.317l-0.108-0.302l-0.255-0.06l-0.41,0.136l-0.806,0.518l-0.524,0.207
		l-0.443,0.317l-0.322,0.493l-0.383,1.953l0.06,0.544l0.121,0.362l0.161,0.342l0.645,0.72l0.262,0.357l0.161,0.312l0.04,0.267
		l-0.161,0.347l-0.363,0.413l-0.826,0.332l-0.483,0.126l-0.544,0.267l-0.544,0.428l-0.987,0.941l-1.276,0.855l-0.537,0.146
		l-1.457,0.06l-3.062-0.739l-0.463,0.01l-0.262,0.171l-0.081,0.272l0.745,1.222l0.04,0.438l-0.04,0.493l-0.161,0.805l-0.04,0.478
		l0.04,0.367l0.141,0.236l1.048,0.784l0.705,0.719l0.282,0.181l0.282,0.075l2.075-0.176l0.222,0.05l0.228,0.121l0.161,0.171
		l0.215,0.372l-0.054,0.211l-0.551,0.553l-1.43,0.895l-1.974,1.648l-0.907,0.392l-0.625,0.06l-0.342-0.201l-0.302,0.11l-0.201,0.392
		l-0.02,1.156l0.141,0.754l0.242,0.814l-0.141,0.432l-0.403,0.402l-1.37,0.768l-0.692,0.507l-2.397,2.907l-0.718,4.914l-0.009,0.064
		l-5.382-1.51l-4.687-1.014L69.482,432.736z"/>
	<path class="st0" d="M43.588,327.43l0.687-2.466l-1.209-9.185l0.322-3.732l2.055-2.514l1.491-2.739l6.567-18.988l3.196-5.46
		l4.472-3.883l1.867-2.375l0.765-3.722l1.182-1.836l6.983-5.102l5.815-1.245l6.245,1.633l14.826,7.539l2.256-0.428l2.533-1.666
		l-0.37,1.217l-1.175,2.845l-1.39,1.896l-4.069,3.893l2.86,1.106l1.571,0.372h0.403l0.322-0.092l0.423-0.387l2.182-2.731
		l0.645,0.092l0.685,0.734l1.571,2.201l1.229,1.406l0.201,0.143l0.222,0.183l0.262,0.173l0.282,0.122l1.108,0.275l0.41,0.336
		l0.544,0.637l1.048,1.482l0.685,1.263l0.403,1.242l-0.081,1.354l-0.201,0.529l-0.524,0.54l-0.181,0.366l-0.181,0.712l-0.242,0.514
		l-0.504,0.941l-0.222,0.504l-0.201,0.697l0.06,0.499l0.242,0.458l0.725,0.641l0.363,0.61l0.383,2.187l0.362,0.549l0.544,0.697
		l1.249,1.256l1.471,2.115l2.787,6.189l3.042-2.642l0.866-0.513l0.302-0.254l0.222-0.244l0.363-0.066h0.262l1.86,1.057l4.21-1.296
		l0.363-0.732l0.403-0.518l-0.02-0.391v-0.31l0.04-0.28l0.02-0.279l-0.061-0.625l0.061-0.864l0.081-0.371l0.101-0.29l0.222-0.087
		l0.282,0.087l0.913,1.007l0.322,0.102h1.249l0.443-0.086l0.363-0.188l0.786-0.752l4.076-1.739l2.155-0.61l1.753,0.869l1.128,1.408
		l1.41,2.628l0.282,0.33l0.43,0.295l2.417,1.189l2.377,0.376l4.499-0.091l0.745-0.173l0.081-0.269l-0.04-0.3l-0.061-0.285
		l-0.02-0.269l0.06-0.229l0.141-0.152l0.363,0.112l0.484,0.356l1.007,0.976l1.047,1.646l0.584,0.589l0.484,0.132l0.732-0.274
		l0.463-0.254l0.463-0.203l0.725,0.081l0.624,0.295l0.826,0.894l0.302,0.447l0.202,0.417l12.623,2.758l0.322,1.244l0.141,0.315
		l0.121,0.421l-0.282,0.401l-0.665,0.467l-6.01,2.447l-1.088,0.152l-0.806-0.091l-1.659-1.137l-0.416-0.188l-0.389-0.03
		l-0.584,1.005l-3.988,10.314l-0.242,0.426l-2.243,2.555l5.728,2.96l0.363,0.056l0.483,0.248l2.867,2.346l5.781,5.9l-2.84,3.159
		l-9.172,16.628l-2.155,2.183l-0.591,2.899l-0.161,0.566l-0.134,0.773l-0.067,0.793l-0.544,3.261l-0.201,0.515l-0.262,0.323
		l-0.342,0.343l0.161,0.585l0.181,0.424l3.371,3.023l-0.886,1.609l-0.544,0.792l-0.222,0.58l0.014,0.434l0.289,0.585v0.545
		l-0.383,0.666l-0.363,0.393l-0.148,0.595l0.121,0.696l0.51,1.548l0.383,0.57l0.342,0.318l0.322,0.076l0.342,0.282l1.289,1.351
		l0.443,0.63l0.222,0.781l-0.02,1.058l-0.403,1.411l-0.403,0.705l-0.544,0.483l-2.122,1.239l-1.45,1.199l-0.342,0.065l-0.262-0.176
		l-1.813-2.226l-0.363-0.161l-0.262,0.03l-0.483,0.292l-0.906,0.433l0.04,0.604l0.342,0.896l1.108,2.16l0.403,1.103l-0.06,1.117
		l-0.322,0.936l-0.242,0.332l-0.322,0.302l-0.363,0.211l-0.403,0.146l-0.363,0.015l-0.363-0.111l-0.893-0.569l-0.906-0.428
		l-0.463-0.091l-0.685,0.091l-2.135,0.82l-0.504,0.599l0.06,0.684l5.707,6.328l0.705,1.338l-0.061,1.589l-1.068,2.694l-0.242,0.734
		l0.081,0.613l0.363,0.482l0.886,0.744l0.564,0.211l0.705-0.06l2.135-0.749l0.786-0.116l0.403,0.241l0.242,0.683l-0.524,1.537
		l-0.04,0.492l0.202,0.306l0.571,0.482l0.416,0.151l0.913,0.115l0.544,0.201l0.242,0.03h0.443l0.322,0.111l0.342,0.251l0.322,0.784
		l0.04,1.035l-0.604,4.223l0.906,6.739l-0.322,5.025l0.947,0.862l0.161,0.582l0.141,0.752l-0.061,0.722l-0.181,0.612l-0.262,0.651
		l-0.242,2.305l0.866,1.483l0.403,0.902l-0.161,0.706l-0.826,0.786l-2.176,1.402l-3.089,2.774l-1.47,2.163l-0.987,0.731l-0.504,0.26
		l-0.262-0.08l-0.342,0.12l-0.383,0.35l-0.705,0.761l-0.483,0.926l-0.463,1.301l-0.04,4.157l-0.551,0.79l-0.947,0.91l-2.437,1.91
		l-1.068,0.58l-0.745,0.23l-0.302-0.115l-0.282-0.055l-0.282-0.005l-0.262-0.055l-0.524-0.305l-0.309-0.075l-0.296,0.32l-0.269,0.66
		l-0.927,4.528l-0.504,1.409l-1.027,1.099l-0.029,0.031l-5.531-2.999l-1.356-1.519l-1.021-1.989l-2.404-2.3l-2.699-1.94l-1.934-0.97
		l-1.464,0.22l-1.303,0.64l-1.343,0.05l-1.585-1.635l-4.391-6.609l-1.209-0.801l-3.263-0.691l-1.343-0.561l-1.276-1.181
		l-13.335-17.92l-4.096-3.401l-8.474-1.285l-1.346-0.377l0.009-0.064l0.718-4.914l2.397-2.907l0.692-0.507l1.37-0.768l0.403-0.402
		l0.141-0.432l-0.242-0.814l-0.141-0.754l0.02-1.156l0.201-0.392l0.302-0.11l0.342,0.201l0.625-0.06l0.907-0.392l1.974-1.648
		l1.43-0.895l0.551-0.553l0.054-0.211l-0.215-0.372l-0.161-0.171l-0.228-0.121l-0.222-0.05l-2.075,0.176l-0.282-0.075l-0.282-0.181
		l-0.705-0.719l-1.048-0.784l-0.141-0.236l-0.04-0.367l0.04-0.478l0.161-0.805l0.04-0.493l-0.04-0.438l-0.745-1.222l0.081-0.272
		l0.262-0.171l0.463-0.01l3.062,0.739l1.457-0.06l0.537-0.146l1.276-0.855l0.987-0.941l0.544-0.428l0.544-0.267l0.483-0.126
		l0.826-0.332l0.363-0.413l0.161-0.347l-0.04-0.267l-0.161-0.312l-0.262-0.357l-0.645-0.72l-0.161-0.342l-0.121-0.362l-0.06-0.544
		l0.383-1.953l0.322-0.493l0.443-0.317l0.524-0.207l0.806-0.518l0.41-0.136l0.255,0.06l0.108,0.302l0.054,0.317l0.148,0.307
		l0.215,0.695l-0.577,1.057l-0.148,0.403l0.04,0.322l0.148,0.201l0.363,0.141l1.752,0.191l0.604,0.282l0.987,0.775l0.564,0.221
		l0.624-0.015l3.451-1.545l4.109-3.212l1.45-0.463l0.692,0.262l0.483-0.438l0.443-0.831l0.826-2.135l0.181-0.907v-0.604
		l-0.201-0.252l-0.262-0.474l-0.161-0.136l-0.222-0.015l-0.55,0.171l-0.295-0.312l-0.282-0.73l0.255-2.131l0.027-0.872l-0.282-0.665
		l-2.686-1.245l-0.584-0.121l-0.322-0.312l-0.262-0.625l-0.262-1.775l0.121-0.968l0.625-1.205l3.586-4.288l-7.037-5.708
		l-0.786-2.211l0.02-0.404l0.081-0.475l0.974-1.687l1.108-2.556l0.302-1.071v-0.778l-0.302-0.394l-0.363-0.687l-0.423-0.632
		l-0.732-0.854l-0.416-0.404l-0.51-0.227l-0.745-0.046l-0.403-0.344l-0.524-0.677l-2.175-4.379l-0.584-0.931l-1.007-1.032
		l-0.886-1.401l-0.443-0.491l-1.235-1.012l-0.242-0.425l0.06-0.405l0.262-0.385l0.302-0.759l-0.06-0.415l-0.403-0.248l-2.317-0.076
		l-0.544-0.132l-0.363-0.233l-0.745-0.739l-0.947-0.714l-0.363-0.41l-0.282-0.243l-0.269-0.142l-0.295-0.04l-1.779,0.03
		l-1.672-0.653l-0.443-2.202l1.108-2.249l1.954-3.11l0.645-0.871l0.524-0.542l1.215-0.806l-7.057-7.026l0.665-1.542l-0.04-1.238
		l1.45-0.746l0.302-0.279l0.222-0.355l0.906-2.456l0.262-0.325l0.443-0.071l0.423,0.041l0.443-0.041l0.383-0.162l0.423-0.441
		l2.303-3.117l0.685-1.356l0.745-2.255l-0.06-1.849l-0.322-1.402l-0.483-0.925l-0.504-0.721l-0.544-0.64l-0.463-0.371l-0.463-0.244
		l-1.356-0.401l-0.262-0.208l-0.262-0.274l-0.342-0.259l-0.624-0.168l-0.846,0.701l-1.148,1.464l-3.666,5.969l-0.128,0.284
		l-0.141,0.183l-0.201,0.086l-0.262,0.046l-0.262,0.102l-0.786,0.584l-0.584,0.564l-0.322,0.411l-0.201,0.406l-0.282,0.822
		l-0.222,0.35l-0.262,0.274l-1.007,0.69l-1.188,0.528l-0.564,0.376l-0.49,0.589l-0.524,1.258l-0.564,0.568l-1.007,0.289
		l-1.611,0.076l-2.337,0.659l-1.759,1.091l-5.398,2.348l-0.765,0.183l-1.276-0.416l-5.701-2.739l-1.699-0.467l-0.786,0.051
		l0.383,0.918l0.141,0.482l-0.081,0.325l-0.423,0.086l-5.869,0.259l-7.863,2.429L43.588,327.43z"/>
	<path class="st0" d="M227.125,172.078l0.606,0.901l2.337,0.762l0.04,1.545l0.04,0.361l0.081,0.407l0.141,0.355l8.004,13.374
		l0.322,0.684l0.161,0.504l-0.06,0.293l-0.202,0.509l-0.02,0.242l0.101,0.37l0.645,1.239l0.141,0.427l0.06,0.334l-0.02,0.185
		l0.201,0.447l1.632,2.986l0.712,0.971l0.725,0.714l3.122,2.075l0.201,0.057h0.443l0.322,0.087l0.423,0.298l1.571,1.474l0.551,0.375
		l0.504,0.21l0.725,0.185l2.437,1.535l0.645,0.596l1.047,1.483l0.383,0.97l0.06,1.447l-0.081,0.77l0.121,0.79l0.141,0.446
		l1.558,2.467l-3.492,3.682l-0.484,0.718l0.181,0.39l0.222,0.067h0.524l1.86,0.559l0.255,0.185l0.309,0.267l0.282,0.338l0.222,0.307
		l0.342,0.902l0.161,0.226l0.181,0.174l0.504,0.277l0.222,0.164l0.221,0.256l0.161,0.256l0.04,0.307l-0.04,0.359l-0.201,0.799
		l-0.04,0.338l0.02,0.297l0.081,0.256l0.02,0.297l-0.06,0.318l-0.222,0.553l-0.121,0.41l-0.02,0.41l0.383,2.633l-0.282,1.116
		l-0.665,1.331l-1.712,2.467l-1.497,1.791l-1.209,0.983l-3.915,1.115l-0.806,0.507l-0.765,0.737l-1.229,2.123l-0.745,0.777
		l-0.524,0.45l-3.814,2.255l0.732,1.59l1.108,0.849l2.357,0.45l1.813,0.603l0.504,0.092l0.967-0.215l3.471-2.045l0.886-0.833
		l0.463-0.675l0.04-0.353l0.081-0.337l0.201-0.307l1.692-1.836h0.309l0.322,0.291l0.806,1.621l0.242,0.368l1.269,0.036l4.19-1.248
		l5.405,1.396l2.484,0.245l0.725,0.424l0.504,0.373l2.599,3.399l-0.645,0.593l-0.242,0.378l-0.342,0.358l-0.262,0.23l-0.262,0.159
		l-0.202,0.194l-0.101,0.245l-0.06,0.327l-0.121,0.409l-0.181,0.429l-0.362,0.547l-0.181,0.434l0.04,0.756l0.745,3.013l0.06,1.001
		l-0.04,0.791l-0.363,1.179l-0.081,0.516v0.556l0.181,0.909l0.04,0.48l-0.04,0.485l-0.181,1.25l0.02,1.123l0.282,0.633l0.544,0.74
		l2.941,2.688l0.342,0.23l0.302,0.128l0.604,0.178l0.342,0.178l0.47,0.316l0.322,0.148l0.544,0.163l2.055,1.973l0.765,0.444
		l0.383,0.316l0.04,0.178l-0.302,0.367l-0.081,0.489l0.061,0.652l0.383,1.397l0.463,0.999l0.866,1.34l4.438,5.568l0.383,0.621
		l0.343,1.884l-0.081,1.313l-0.161,0.372l-0.262,0.494l-0.443,0.651l-1.551,3.277l-1.799,2.768l-0.463,0.315l-0.604,0.193
		l-1.914,0.071l-0.725,0.376l-0.624,0.824l-3.089,5.882l-0.504,0.656l-1.853,1.606l-0.443,0.498l-0.222,0.427l0.282,1.717
		l-0.02,0.792l-0.866,0.203l-0.725,0.03l-7.117-1.91l-3.451,5.018l-1.934,2.265l-0.604,0.863l-0.342,0.609l-0.201,0.594l-0.081,0.36
		v0.315l0.02,0.31v0.299l-0.04,0.335l-0.443,1.289l-0.081,0.305l-0.04,0.436l-12.724,1.608l-1.47,3.17l-9.152,5.562l-4.156,3.654
		l-1.914,1.145l-0.242,0.233l-0.081,0.188l-0.04,0.258l-0.161,0.132l-0.282,0.101l-0.873-0.76l-0.846-1.246l-0.242-0.142
		l-0.282,0.142l-0.342,0.694l-0.282,0.714l-0.081,0.162l-0.886-0.061l-3.183-1.165l-1.471-4.419l-1.236-2.717l-0.584-0.634
		l-2.538-1.719l-0.685-0.761l-0.463-0.416l-0.504-0.218l-1.558,0.035l-0.564-0.172l-0.342-0.365l-0.04-0.913l-0.423-0.447
		l-0.322-0.426l-0.262-0.802l0.101-1.284l1.047-1.954l1.108-1.695l0.752-1.848l-0.067-1.188l-1.048-1.757l-1.47-1.443l-2.256-0.61
		l-5.627-3.231l-1.047-1.453l-1.43-2.653l-0.685-0.956l-2.847-2.959l-1.068-0.651l-9.253-2.004l-0.222-0.285l-0.121-0.829
		l0.02-0.549l-0.04-0.427l-0.383-0.275l-0.383-0.209l-2.706-0.224l-0.927,0.743l-0.645,0.819l-0.121,0.544l0.02,0.646l0.282,1.236
		l0.121,0.824l0.06,0.834l-0.02,1.337l0.101,0.564l0.141,0.346l0.121,0.102l0.121,0.224l0.121,0.29l0.141,0.625l0.564,1.281
		l0.081,0.152l0.101,0.081l0.201,0.097l0.06,0.092l0.121,0.31l0.121,0.152l0.161,0.173l0.121,0.168l0.148,0.249l0.215,1.24
		l0.081,1.108l-0.04,0.894l-0.255,1.24l-0.188,0.488l-0.282,0.223l-0.564-0.284l-0.342-0.224l-0.524,0.152l-0.342,0.239
		l-2.498,2.753l-12.623-2.758l-0.202-0.417l-0.302-0.447l-0.826-0.894l-0.624-0.295l-0.725-0.081l-0.463,0.203l-0.463,0.254
		l-0.732,0.274l-0.484-0.132l-0.584-0.589l-1.047-1.646l-1.007-0.976l-0.484-0.356l-0.363-0.112l-0.141,0.152l-0.06,0.229
		l0.02,0.269l0.061,0.285l0.04,0.3l-0.081,0.269l-0.745,0.173l-4.499,0.091l-2.377-0.376l-2.417-1.189l-0.43-0.295l-0.282-0.33
		l-1.41-2.628l-1.128-1.408l-1.753-0.869l-2.155,0.61l-4.076,1.739l-0.786,0.752l-0.363,0.188l-0.443,0.086h-1.249l-0.322-0.102
		l-0.913-1.007l-0.282-0.087l-0.222,0.087l-0.101,0.29l-0.081,0.371l-0.061,0.864l0.061,0.625l-0.02,0.279l-0.04,0.28v0.31
		l0.02,0.391l-0.403,0.518l-0.363,0.732l-4.21,1.296l-1.86-1.057h-0.262l-0.363,0.066l-0.222,0.244l-0.302,0.254l-0.866,0.513
		l-3.042,2.642l-2.787-6.189l-1.471-2.115l-1.249-1.256l-0.544-0.697l-0.362-0.549l-0.383-2.187l-0.363-0.61l-0.725-0.641
		l-0.242-0.458l-0.06-0.499l0.201-0.697l0.222-0.504l0.504-0.941l0.242-0.514l0.181-0.712l0.181-0.366l0.524-0.54l0.201-0.529
		l0.081-1.354l-0.403-1.242l-0.685-1.263l-1.048-1.482l-0.544-0.637l-0.41-0.336l-1.108-0.275l-0.282-0.122l-0.262-0.173
		l-0.222-0.183l-0.201-0.143l-1.229-1.406l-1.571-2.201l-0.685-0.734l-0.645-0.092l-2.182,2.731l-0.423,0.387l-0.322,0.092h-0.403
		l-1.571-0.372l-2.86-1.106l4.069-3.893l1.39-1.896l1.175-2.845l0.37-1.217l2.382-1.568l3.089-0.908l1.894,0.918l3.975,4.212
		l4.754,0.744l14.416-5.689l10.549-4.165l2.296-1.909l4.485-7.741l2.095-1.747l3.196-0.552l2.74,0.47l2.484-0.143l2.39-2.34
		l1.061-2.709l1.007-6.126l0.806-2.937l1.719-3.459l2.726-1.761l3.142-0.491l6.97,0.543l4.311-1.986l3.827-3.575l2.699-4.58
		l0.859-4.357l-0.166-8.869l-0.022-1.195l0.47-5.328l1.652-6.523l2.431-6.065l3.129-5.102l3.827-3.632l17.485-6.836L227.125,172.078
		z"/>
	<path class="st0" d="M500.558,343.324l-3.949,4.192l-1.947,2.576l-1.504,3.04l-5.049,15.526l-2.713,5.639l-3.25,4.986l-3.774,3.813
		l-2.968,1.553l-1.571-0.671l-1.464-1.619l-2.592-1.311l-1.464,0.646l-3.921,3.631l-2.176,0.968l-2.283-0.242l-1.329-0.494
		l-1.115,0.222l-1.625,1.936l-0.51,1.371l-0.712,3.507l-0.953,1.743l-1.074,0.851l-2.457,0.952l-5.169,3.179l-0.431,0.265
		l-4.942,1.551l-2.995,1.857l-5.882,5.509l-3.062,1.127l-2.699-1.036l-4.942-4.488l-3.196-1.022l-4.687,1.797l-1.236-0.161
		l-1.222-1.847l0.322-1.646l0.739-1.681l-0.067-1.913l-2.31-2.81l-3.048-0.504l-5.989,1.169l-1.303-0.68l-2.82-3.501l-1.477-1.26
		l-1.303-0.383l-1.383-0.045l-11.952,3.19l-2.243,1.305l-1.423,2.836l-1.222,7.541l-1.544,3.079l-0.04,0.09l-0.027,0.091
		l0.027,0.121l0.04,0.131l0.201,1.066l0.067,1.056l-0.067,1.026l-0.201,1.006l-6.956,4.957l-17.538-0.372l-7.762,4.995l-1.423,0.291
		l-16.115-1.974l-7.776,1.14l-2.553-0.122l-0.006-0.074l-0.134-1.794l-0.04-2.402l0.242-0.653l1.471-2.177l0.389-0.96l0.363-0.533
		l0.483-0.478l0.645-0.407l0.584-0.493l0.766-0.855l0.947-1.267l0.463-1.333l0.06-1.343l-0.786-3.568l-0.04-1.052l0.363-1.43
		l0.262-0.79l0.262-0.569l0.584-0.836l0.141-0.403l0.04-0.373v-0.584l0.04-0.332l-0.161-0.504l-0.161-0.322l-1.753-1.975
		l-2.095,1.934l-0.685,0.514l-0.645,0.352l-0.651,0.071l-0.443-0.01l-0.766-0.151l-0.363,0.07l-0.463,0.181l-2.176,0.524
		l-1.813,0.957l-0.685,0.242l-0.873,0.121l-1.047,0.337l-0.484,0.337l-0.483,0.222l-0.967,0.282l-0.423,0.302l-0.403,0.524
		l-0.403,0.805l-0.161,0.624l-0.061,0.383l-0.081,0.216l-0.121,0.116l-0.242,0.03l-0.806-0.101l-0.591,0.04l-1.249,0.393
		l-0.645,0.06l-0.645-0.091l-1.047-0.302l-0.383-0.02l-0.705,0.116l-0.363-0.015l-0.544-0.141l-0.624-0.357l-2.505-1.998
		l-0.544-0.302l-0.725-0.171l-0.645-0.06l-0.564,0.03l-0.423,0.222l-0.322,0.362l-0.302,0.674l-0.262,0.398l-0.322,0.272
		l-0.322,0.076l-0.342-0.081l-0.322-0.262l-0.403-0.574l-0.242-0.8l-0.188-0.992v-1.148l0.201-0.846l0.712-1.017l0.846-0.791
		l0.544-0.69l0.624-0.312l0.181-0.328l-0.02-0.589l-0.524-1.27l-1.068-1.915l-0.222-0.716l0.081-0.504l0.483-0.438l0.181-0.287
		v-0.302l-1.189-1.265l0.081-0.691l0.483-0.948l1.471-1.987l1.591-1.594l0.403-0.918l0.262-0.726l1.088-5.53l-5.096-11.707
		l-0.806-0.96l-3.371-2.846l-3.733-5.542l-1.531-0.41l-0.584,0.233l-0.725,0.475l-1.229,1.472l-1.873,1.866l-0.363,0.5l-0.463,0.834
		l-0.752,0.814l-0.161,0.369l-0.054,0.475l-0.161,0.475l-0.269,0.424l-0.564,0.632l-0.101,0.601l-0.04,0.637l-0.121,0.445
		l-0.322,0.536l-4.17,1.354l-8.145,1.268l-1.638,0.561l-1.088,1.197l-0.846,1.349l-0.262,0.353l-0.906,0.768l-0.363,0.404
		l-0.423,0.858l-0.584-0.06l-1.309-2.191l0.645-0.894l1.088-1.116l0.322-0.444l0.262-0.465l0.101-0.515l0.121-0.48l0.222-0.369
		l0.866-0.707l0.443-0.505l0.524-0.819l0.342-0.95l0.302-1.193l0.121-1.294l-0.161-1.552l-0.524-2.553l-0.987-1.891l-0.705-0.824
		l-0.584-0.207l-0.383-0.04l-0.282-0.273l-0.121-0.637l0.141-1.098v-1.169l-0.302-1.103l-1.088-1.984l-0.403-1.063l0.094-1.286
		l0.349-0.587l1.088-1.438l0.161-0.354l-0.081-0.223l-0.745-0.152l-0.222-0.294l-0.061-0.537l0.222-1.271l0.101-0.887l0.04-0.932
		l-0.262-0.892l-0.443-0.552l-1.094-0.39h-1.148l-3.163,0.699l-0.322-0.264l0.161-0.709l0.826-1.536l1.914-2.347l0.282-0.466
		l-0.242-0.629l-0.886-0.624l-1.893-2.906l1.47-3.17l12.724-1.608l0.04-0.436l0.081-0.305l0.443-1.289l0.04-0.335v-0.299l-0.02-0.31
		V318.5l0.081-0.36l0.201-0.594l0.342-0.609l0.604-0.863l1.934-2.265l3.451-5.018l7.117,1.91l0.725-0.03l0.866-0.203l0.02-0.792
		l-0.282-1.717l0.222-0.427l0.443-0.498l1.853-1.606l0.504-0.656l3.089-5.882l0.624-0.824l0.725-0.376l1.914-0.071l0.604-0.193
		l0.463-0.315l1.799-2.768l1.551-3.277l0.443-0.651l0.262-0.494l0.161-0.372l0.081-1.313l5.566-3.921l1.591-0.509l0.222,0.306
		l0.161,0.397l0.101,0.397l0.181,0.316l0.161,0.234l0.242,0.244l0.302,0.545l0.06,0.27l2.196,0.519l11.052,0.652l1.773-3.28
		l0.302-1.197l0.423-2.318l0.06-0.968l-0.081-0.632l-0.181-0.265l-1.732-1.58l-0.745-1.397l-0.121-0.877l0.161-0.602l0.383-0.454
		l0.504-0.76l0.121-0.836l-0.121-1.153l-0.705-2.438l-0.02-0.663l0.282-0.469l2.155-1.082l0.625-0.653l0.383-0.49l1.497-3.491
		l6.171,0.357l21.487-3.104l1.034,0.02l0.181,0.327l0.202,0.705l0.222,0.235l0.403,0.204l0.302,0.439l0.262,0.72l0.221,1.577
		l0.061,0.735l-0.04,0.48l-0.141,0.102l-0.463,0.061l-0.181,0.092l-0.141,0.245l-0.302,0.822l0.242,0.128l0.403,0.02l5.298-0.827
		l0.712-0.235l0.685-0.51l0.262-0.327l0.181-0.327l0.121-0.398l0.181-1.256l0.221-0.745l1.39-1.828l2.74-1.593l4.338-5.374
		l21.816-3.731l9.857,1.227l8.346,3.107l0.987,0.766l0.712,0.802l0.483,0.271l1.289,0.337l0.483,0.235l0.383,0.378l0.342,0.444
		l0.665,0.643l0.504,0.199l0.483-0.01l1.558-0.878l5.942-1.737l1.215,0.031l3.646,1.022l12.442,0.276l0.342-0.112l1.551-0.153
		l2.276-1.114l0.705-0.02l0.564,0.072l1.699,1.298l18.707,2.339l2.464-0.184l2.014-1.793l0.866-0.015l2.377,1.236l2.545,0.837
		l0.705,0.378l0.947,0.761l5.305,3.119l-2.948,0.908l-6.11,9.203l-0.564,1.147l0.121,0.964l-0.04,0.607l-0.081,0.489l-0.081,1.906
		l-0.02,1.544l0.383,1.946l0.06,1.029l-0.544,0.856l-0.625,0.784l-0.685,0.652l-0.443,0.55l-0.302,0.509l-0.101,0.876l0.04,1.171
		l0.463,2.332l0.504,1.201l1.027,0.997l1.457,0.305l0.295,0.178l6.674,5.54l0.712,1.449l2.699,7.894l0.886,3.617l-0.121,0.355
		l-0.121,0.356l-0.06,0.406l0.02,0.447l0.222,0.366l0.483,0.457l1.168,0.609l0.927,0.284l1.417,0.198l0.443,0.147l1.088,0.599
		l1.148,0.452l0.282,0.218l0.06,0.315l-0.363,1.34l-0.504,2.553l-0.201,0.624l-0.242,0.457l-0.342,0.482l-0.342,0.634l-0.302,0.72
		l-0.342,1.106l-0.947,4.645l-0.349,0.801l-0.725,1.105l-0.483,0.973l-0.342,0.953l-0.242,1.247l0.04,0.801l0.161,0.689l0.443,0.912
		l0.141,0.537l0.02,0.562l-0.101,0.496l-0.04,0.501l0.322,0.623l0.624,0.633l2.283,1.408l0.302,0.385l-0.101,0.314l-0.242,0.37
		l-0.161,0.334l-0.101,0.309l0.04,0.223l0.584,0.081l5.486-0.466l2.035,0.279l1.068-0.066l2.256-1.266l0.947-0.339l2.847-0.025
		l2.176,1.61L500.558,343.324z"/>
	<path class="st0" d="M312.548,421.067l-2.927-0.14l-1.907,0.894l-6.266,1.413l-12.361,2.786l-2.27,1.858l-3.478,7.247l-1.236,1.073
		l-2.525,0.431l-1.182,0.692l-1.692,2.091l0.174,0.717l0.9,0.777l0.43,2.241l-1.303,8.007l-0.322,4.081l0.846,3.629l3.801,3.733
		l4.996,3.657l-0.2,0.071l-3.198,1.134l-2.941,0.78l-2.256,1.68l-4.297,4.933l-3.169,1.964l-3.787,0.4l-3.881-0.759l-4.727-2.094
		l-5.828-0.425l-26.603,3.108l-9.723,3.966l-4.821,0.459l-16.021-1.663l-29.767,1.926l-7.513,0.486l-10.878-2.971l-2.956-1.602
		l0.029-0.031l1.027-1.099l0.504-1.409l0.927-4.528l0.269-0.66l0.296-0.32l0.309,0.075l0.524,0.305l0.262,0.055l0.282,0.005
		l0.282,0.055l0.302,0.115l0.745-0.23l1.068-0.58l2.437-1.91l0.947-0.91l0.551-0.79l0.04-4.157l0.463-1.301l0.483-0.926l0.705-0.761
		l0.383-0.35l0.342-0.12l0.262,0.08l0.504-0.26l0.987-0.731l1.47-2.163l3.089-2.774l2.176-1.402l0.826-0.786l0.161-0.706
		l-0.403-0.902l-0.866-1.483l0.242-2.305l0.262-0.651l0.181-0.612l0.061-0.722l-0.141-0.752l-0.161-0.582l-0.947-0.862l0.322-5.025
		l-0.906-6.739l0.604-4.223l-0.04-1.035l-0.322-0.784l-0.342-0.251l-0.322-0.111h-0.443l-0.242-0.03l-0.544-0.201l-0.913-0.115
		l-0.416-0.151l-0.571-0.482l-0.202-0.306l0.04-0.492l0.524-1.537l-0.242-0.683l-0.403-0.241l-0.786,0.116l-2.135,0.749l-0.705,0.06
		l-0.564-0.211l-0.886-0.744l-0.363-0.482l-0.081-0.613l0.242-0.734l1.068-2.694l0.061-1.589l-0.705-1.338l-5.707-6.328l-0.06-0.684
		l0.504-0.599l2.135-0.82l0.685-0.091l0.463,0.091l0.906,0.428l0.893,0.569l0.363,0.111l0.363-0.015l0.403-0.146l0.363-0.211
		l0.322-0.302l0.242-0.332l0.322-0.936l0.06-1.117l-0.403-1.103l-1.108-2.16l-0.342-0.896l-0.04-0.604l0.906-0.433l0.483-0.292
		l0.262-0.03l0.363,0.161l1.813,2.226l0.262,0.176l0.342-0.065l1.45-1.199l2.122-1.239l0.544-0.483l0.403-0.705l0.403-1.411
		l0.02-1.058l-0.222-0.781l-0.443-0.63l-1.289-1.351l-0.342-0.282l-0.322-0.076l-0.342-0.318l-0.383-0.57l-0.51-1.548l-0.121-0.696
		l0.148-0.595l0.363-0.393l0.383-0.666v-0.545l-0.289-0.585l-0.014-0.434l0.222-0.58l0.544-0.792l0.886-1.609l-3.371-3.023
		l-0.181-0.424l-0.161-0.585l0.342-0.343l0.262-0.323l0.201-0.515l0.544-3.261l0.067-0.793l0.134-0.773l0.161-0.566l0.591-2.899
		l2.155-2.183l9.172-16.628l2.84-3.159l-5.781-5.9l-2.867-2.346l-0.483-0.248l-0.363-0.056l-5.728-2.96l2.243-2.555l0.242-0.426
		l3.988-10.314l0.584-1.005l0.389,0.03l0.416,0.188l1.659,1.137l0.806,0.091l1.088-0.152l6.01-2.447l0.665-0.467l0.282-0.401
		l-0.121-0.421l-0.141-0.315l-0.322-1.244l2.498-2.753l0.342-0.239l0.524-0.152l0.342,0.224l0.564,0.284l0.282-0.223l0.188-0.488
		l0.255-1.24l0.04-0.894l-0.081-1.108l-0.215-1.24l-0.148-0.249l-0.121-0.168l-0.161-0.173l-0.121-0.152l-0.121-0.31l-0.06-0.092
		l-0.201-0.097l-0.101-0.081l-0.081-0.152l-0.564-1.281l-0.141-0.625l-0.121-0.29l-0.121-0.224l-0.121-0.102l-0.141-0.346
		l-0.101-0.564l0.02-1.337l-0.06-0.834l-0.121-0.824l-0.282-1.236l-0.02-0.646l0.121-0.544l0.645-0.819l0.927-0.743l2.706,0.224
		l0.383,0.209l0.383,0.275l0.04,0.427l-0.02,0.549l0.121,0.829l0.222,0.285l9.253,2.004l1.068,0.651l2.847,2.959l0.685,0.956
		l1.43,2.653l1.047,1.453l5.627,3.231l2.256,0.61l1.47,1.443l1.048,1.757l0.067,1.188l-0.752,1.848l-1.108,1.695l-1.047,1.954
		l-0.101,1.284l0.262,0.802l0.322,0.426l0.423,0.447l0.04,0.913l0.342,0.365l0.564,0.172l1.558-0.035l0.504,0.218l0.463,0.416
		l0.685,0.761l2.538,1.719l0.584,0.634l1.236,2.717l1.471,4.419l3.183,1.165l0.886,0.061l0.081-0.162l0.282-0.714l0.342-0.694
		l0.282-0.142l0.242,0.142l0.846,1.246l0.873,0.76l0.282-0.101l0.161-0.132l0.04-0.258l0.081-0.188l0.242-0.233l1.914-1.145
		l4.156-3.654l9.152-5.562l1.893,2.906l0.886,0.624l0.242,0.629l-0.282,0.466l-1.914,2.347l-0.826,1.536l-0.161,0.709l0.322,0.264
		l3.163-0.699h1.148l1.094,0.39l0.443,0.552l0.262,0.892l-0.04,0.932L249.929,339l-0.222,1.271l0.061,0.537l0.222,0.294l0.745,0.152
		l0.081,0.223l-0.161,0.354l-1.088,1.438l-0.349,0.587l-0.094,1.286l0.403,1.063l1.088,1.984l0.302,1.103v1.169l-0.141,1.098
		l0.121,0.637l0.282,0.273l0.383,0.04l0.584,0.207l0.705,0.824l0.987,1.891l0.524,2.553l0.161,1.552l-0.121,1.294l-0.302,1.193
		l-0.342,0.95l-0.524,0.819l-0.443,0.505l-0.866,0.707l-0.222,0.369l-0.121,0.48l-0.101,0.515l-0.262,0.465l-0.322,0.444
		l-1.088,1.116l-0.645,0.894l1.309,2.191l0.584,0.06l0.423-0.858l0.363-0.404l0.906-0.768l0.262-0.353l0.846-1.349l1.088-1.197
		l1.638-0.561l8.145-1.268l4.17-1.354l0.322-0.536l0.121-0.445l0.04-0.637l0.101-0.601l0.564-0.632l0.269-0.424l0.161-0.475
		l0.054-0.475l0.161-0.369l0.752-0.814l0.463-0.834l0.363-0.5l1.873-1.866l1.229-1.472l0.725-0.475l0.584-0.233l1.531,0.41
		l3.733,5.542l3.371,2.846l0.806,0.96l5.096,11.707l-1.088,5.53l-0.262,0.726l-0.403,0.918l-1.591,1.594l-1.471,1.987l-0.483,0.948
		l-0.081,0.691l1.189,1.265v0.302l-0.181,0.287l-0.483,0.438l-0.081,0.504l0.222,0.716l1.068,1.915l0.524,1.27l0.02,0.589
		l-0.181,0.328l-0.624,0.312l-0.544,0.69l-0.846,0.791l-0.712,1.017l-0.201,0.846v1.148l0.188,0.992l0.242,0.8l0.403,0.574
		l0.322,0.262l0.342,0.081l0.322-0.076l0.322-0.272l0.262-0.398l0.302-0.674l0.322-0.362l0.423-0.222l0.564-0.03l0.645,0.06
		l0.725,0.171l0.544,0.302l2.505,1.998l0.624,0.357l0.544,0.141l0.363,0.015l0.705-0.116l0.383,0.02l1.047,0.302l0.645,0.091
		l0.645-0.06l1.249-0.393l0.591-0.04l0.806,0.101l0.242-0.03l0.121-0.116l0.081-0.216l0.061-0.383l0.161-0.624l0.403-0.805
		l0.403-0.524l0.423-0.302l0.967-0.282l0.483-0.222l0.484-0.337l1.047-0.337l0.873-0.121l0.685-0.242l1.813-0.957l2.176-0.524
		l0.463-0.181l0.363-0.07l0.766,0.151l0.443,0.01l0.651-0.071l0.645-0.352l0.685-0.514l2.095-1.934l1.753,1.975l0.161,0.322
		l0.161,0.504l-0.04,0.332v0.584l-0.04,0.373l-0.141,0.403l-0.584,0.836l-0.262,0.569l-0.262,0.79l-0.363,1.43l0.04,1.052
		l0.786,3.568l-0.06,1.343l-0.463,1.333l-0.947,1.267l-0.766,0.855l-0.584,0.493l-0.645,0.407l-0.483,0.478l-0.363,0.533
		l-0.389,0.96l-1.471,2.177l-0.242,0.653l0.04,2.402l0.134,1.794L312.548,421.067z"/>
</g>
<g id="Copyright">
	<text transform="matrix(1 0 0 1 681.6426 577.5916)" class="st1 st2">© Vemaps.com</text>
</g>
</svg>
